<svg width="20" height="21" viewBox="0 0 20 21" fill="none" xmlns="http://www.w3.org/2000/svg">
<path d="M13.2681 1.64307C11.3431 0.895246 9.21959 0.832143 7.25366 1.46435C5.28772 2.09656 3.599 3.38561 2.47078 5.11527C1.34257 6.84493 0.843494 8.90996 1.05728 10.964C1.27108 13.0179 2.18472 14.9359 3.64496 16.3962C5.1052 17.8564 7.02319 18.7701 9.07718 18.9839C11.1312 19.1976 13.1962 18.6986 14.9259 17.5704C16.6555 16.4421 17.9446 14.7534 18.5768 12.7875C19.209 10.8215 19.1459 8.69799 18.3981 6.77307M11.2881 8.75307L16.3281 3.71307M11.8281 10.0131C11.8281 11.0072 11.0222 11.8131 10.0281 11.8131C9.03396 11.8131 8.22807 11.0072 8.22807 10.0131C8.22807 9.01895 9.03396 8.21307 10.0281 8.21307C11.0222 8.21307 11.8281 9.01895 11.8281 10.0131Z" stroke="#081B60" stroke-width="2" stroke-linecap="round" stroke-linejoin="round"/>
</svg>
